<svg width="702" height="673" viewBox="0 0 702 673" fill="none" xmlns="http://www.w3.org/2000/svg">
<path d="M250 87.8141C258.226 74.5668 276.413 70.0514 290.614 77.7111C304.826 85.3812 309.673 102.34 301.447 115.577C293.231 128.834 275.044 133.35 260.844 125.68C246.632 118.02 241.784 101.061 250 87.8141ZM230.399 86.443C229.472 88.8244 228.765 91.2471 228.301 93.6904L216.011 96.2574L216 107.02L228.29 109.618C228.765 112.082 229.461 114.505 230.366 116.865L221.091 124.824L226.855 134.154L238.88 130.68C240.592 132.577 242.502 134.34 244.578 135.979L240.812 147.205L250.806 152.597L259.364 143.968C261.926 144.824 264.521 145.484 267.127 145.927L269.887 157.381L281.438 157.391L284.221 145.927C286.86 145.484 289.466 144.834 291.983 143.999L300.53 152.649L310.535 147.278L306.802 136.051C308.834 134.453 310.734 132.68 312.489 130.752L324.526 134.257L330.312 124.938L321.058 116.948C321.975 114.577 322.681 112.154 323.156 109.711L335.447 107.144L335.458 96.3811L323.156 93.7729C322.681 91.3193 321.997 88.8966 321.091 86.5358L330.367 78.5668L324.603 69.2369L312.578 72.7215C310.855 70.8246 308.956 69.0514 306.88 67.4225L310.645 56.1958L300.652 50.8041L292.083 59.4329C289.532 58.5772 286.937 57.9174 284.32 57.4741L281.559 46.0206L270.02 46L267.226 57.4741C264.587 57.9174 261.992 58.5566 259.463 59.402L250.927 50.7525L240.912 56.1236L244.644 67.3504C242.612 68.938 240.713 70.7215 238.968 72.6493L226.932 69.1442L221.146 78.4637L230.399 86.443Z" fill="#68E1FD"/>
<path d="M273.881 120.28C315.301 81.3935 303.442 57.0225 331.788 39.0227C375.406 11.3218 456.8 35.1567 504.824 73.2595C563.636 119.929 593.981 205.135 559.418 282.227C522.602 364.319 425.737 406.938 339.308 394.092C262.132 382.618 186.259 325.887 178.65 257.836C177.833 250.464 174.189 210.599 199.709 176.218C220.789 147.805 241.041 151.104 273.881 120.28Z" fill="#D0F6FF"/>
<path d="M520.681 135.981L224.919 125.332C217.885 125.332 212.165 130.672 212.165 137.229V329.743C212.165 336.299 217.885 341.64 224.919 341.64L331.788 334.887L318.073 381.577L303.552 381.691C299.025 381.691 295.348 385.124 295.348 389.34C295.348 393.567 299.025 397 303.552 397L425.13 391.588C429.658 391.588 421.188 341.64 421.188 341.64C421.188 341.64 527.715 135.981 520.681 135.981Z" fill="#11BDEE"/>
<path d="M419.278 317.021H343.858L322.457 389.845H440.667L419.278 317.021Z" fill="white"/>
<path d="M323.407 389.175H439.728L418.725 317.691H344.398L323.407 389.175ZM440.667 390.515H322.457C322.236 390.515 322.026 390.412 321.883 390.247C321.75 390.082 321.706 389.866 321.761 389.66L343.162 316.846C343.25 316.557 343.526 316.351 343.857 316.351H419.278C419.598 316.351 419.885 316.557 419.962 316.846L441.362 389.66C441.429 389.866 441.374 390.082 441.241 390.247C441.109 390.412 440.899 390.515 440.667 390.515Z" fill="black"/>
<path d="M532.143 126.001H230.992C224.344 126.001 218.956 131.032 218.956 137.228V329.742C218.956 335.938 224.344 340.958 230.992 340.958H532.143C538.779 340.958 544.168 335.938 544.168 329.742V137.228C544.168 131.032 538.779 126.001 532.143 126.001Z" fill="white"/>
<path d="M230.993 126.682C224.754 126.682 219.674 131.414 219.674 137.229V329.743C219.674 335.557 224.754 340.289 230.993 340.289H532.133C538.372 340.289 543.451 335.557 543.451 329.743V137.229C543.451 131.414 538.372 126.682 532.133 126.682H230.993ZM532.133 341.639H230.993C223.959 341.639 218.239 336.299 218.239 329.743V137.229C218.239 130.672 223.959 125.332 230.993 125.332H532.133C539.167 125.332 544.887 130.672 544.887 137.229V329.743C544.887 336.299 539.167 341.639 532.133 341.639Z" fill="black"/>
<path d="M453.51 382.36H309.626C305.485 382.36 302.139 385.484 302.139 389.34C302.139 393.195 305.485 396.319 309.626 396.319H453.51C457.64 396.319 460.997 393.195 460.997 389.34C460.997 385.484 457.64 382.36 453.51 382.36Z" fill="white"/>
<path d="M309.626 383.031C305.883 383.031 302.846 385.866 302.846 389.34C302.846 392.825 305.883 395.649 309.626 395.649H453.51C457.242 395.649 460.279 392.825 460.279 389.34C460.279 385.866 457.242 383.031 453.51 383.031H309.626ZM453.51 397H309.626C305.099 397 301.411 393.567 301.411 389.34C301.411 385.124 305.099 381.691 309.626 381.691H453.51C458.037 381.691 461.715 385.124 461.715 389.34C461.715 393.567 458.037 397 453.51 397Z" fill="black"/>
<path d="M229.656 279.155V325.413C229.656 328.495 232.339 330.99 235.641 330.99H527.494C530.796 330.99 533.479 328.495 533.479 325.413V278.547L229.656 279.155Z" fill="white"/>
<path d="M527.494 331.66H235.641C231.942 331.66 228.938 328.856 228.938 325.412V279.155C228.938 278.784 229.259 278.485 229.656 278.485C230.054 278.485 230.374 278.784 230.374 279.155V325.412C230.374 328.113 232.737 330.32 235.641 330.32H527.494C530.398 330.32 532.75 328.113 532.75 325.412V278.547C532.75 278.176 533.071 277.877 533.468 277.877C533.866 277.877 534.197 278.176 534.197 278.547V325.412C534.197 328.856 531.182 331.66 527.494 331.66Z" fill="black"/>
<path d="M229.656 163.465C229.259 163.465 228.938 163.156 228.938 162.795V150.95C228.938 150.579 229.259 150.28 229.656 150.28C230.054 150.28 230.374 150.579 230.374 150.95V162.795C230.374 163.156 230.054 163.465 229.656 163.465Z" fill="black"/>
<path d="M253 135.981H235.641C232.339 135.981 229.656 138.476 229.656 141.558L253 135.981Z" fill="white"/>
<path d="M229.656 142.228C229.259 142.228 228.938 141.929 228.938 141.558C228.938 138.115 231.942 135.311 235.641 135.311H253C253.397 135.311 253.718 135.61 253.718 135.981C253.718 136.352 253.397 136.651 253 136.651H235.641C232.737 136.651 230.374 138.857 230.374 141.558C230.374 141.929 230.054 142.228 229.656 142.228Z" fill="black"/>
<path d="M533.479 150.95V141.558C533.479 138.476 530.796 135.981 527.494 135.981H509.639L533.479 150.95Z" fill="white"/>
<path d="M533.468 151.62C533.071 151.62 532.75 151.321 532.75 150.95V141.558C532.75 138.857 530.398 136.651 527.494 136.651H509.638C509.241 136.651 508.921 136.352 508.921 135.981C508.921 135.61 509.241 135.311 509.638 135.311H527.494C531.182 135.311 534.197 138.115 534.197 141.558V150.95C534.197 151.321 533.866 151.62 533.468 151.62Z" fill="black"/>
<path d="M533.468 177.847C533.07 177.847 532.75 177.548 532.75 177.176V164.094C532.75 163.723 533.07 163.424 533.468 163.424C533.865 163.424 534.197 163.723 534.197 164.094V177.176C534.197 177.548 533.865 177.847 533.468 177.847Z" fill="black"/>
<path d="M532.066 329.843H231.004V147.87C231.004 141.243 241.19 135.865 253.738 135.865H509.332C521.88 135.865 532.066 141.243 532.066 147.87V329.843Z" fill="#68E1FD"/>
<path d="M389.374 95.7647H280.661V89.3627H389.374V95.7647Z" fill="#D0F6FF"/>
<path d="M389.374 183.568H280.661V177.177H389.374V183.568Z" fill="#D0F6FF"/>
<path d="M446.641 194.682H319.575V188.022H446.641V194.682Z" fill="white"/>
<path d="M465.092 205.65H347.876V198.991H465.092V205.65Z" fill="white"/>
<path d="M474.943 216.63H393.936V209.97H474.943V216.63Z" fill="white"/>
<path d="M474.943 150.775H347.866V144.115H474.943V150.775Z" fill="white"/>
<path d="M444.3 172.723H393.936V166.063H444.3V172.723Z" fill="white"/>
<path d="M474.943 161.754H393.936V155.094H474.943V161.754Z" fill="white"/>
<path d="M389.374 227.476H280.661V221.084H389.374V227.476Z" fill="#D0F6FF"/>
<path d="M446.641 238.578H319.575V231.918H446.641V238.578Z" fill="white"/>
<path d="M470.857 249.558H347.876V242.898H470.857V249.558Z" fill="white"/>
<path d="M472.603 260.527H391.595V253.877H472.603V260.527Z" fill="#D0F6FF"/>
<path d="M416.528 315.412H347.876V308.753H416.528V315.412Z" fill="#D0F6FF"/>
<path d="M446.641 271.506H319.575V264.846H446.641V271.506Z" fill="white"/>
<path d="M474.943 282.485H347.866V275.825H474.943V282.485Z" fill="white"/>
<path d="M474.943 304.433H393.936V297.773H474.943V304.433Z" fill="white"/>
<path d="M440.314 293.464H393.936V286.804H440.314V293.464Z" fill="white"/>
<path d="M466.208 193.62C466.208 193.62 470.172 193.744 471.74 191.733L466.208 193.62Z" fill="white"/>
<path d="M386.139 183.65C382.098 183.65 378.144 182.97 374.379 181.619C374.014 181.485 373.827 181.094 373.97 180.743C374.114 180.403 374.533 180.228 374.898 180.362C378.818 181.774 382.959 182.423 387.188 182.289C390.788 182.186 394.288 181.516 397.601 180.31C397.977 180.176 398.385 180.341 398.529 180.692C398.683 181.032 398.496 181.423 398.131 181.558C394.653 182.815 390.998 183.516 387.243 183.63C386.868 183.64 386.504 183.65 386.139 183.65Z" fill="#D0F6FF"/>
<path d="M353.133 151.661C353.122 151.661 353.1 151.661 353.078 151.661C352.681 151.63 352.382 151.3 352.416 150.939C352.714 147.475 353.641 144.094 355.176 140.898C355.629 139.96 356.137 139.022 356.689 138.125C356.888 137.805 357.329 137.692 357.672 137.878C358.014 138.063 358.136 138.476 357.937 138.795C357.407 139.651 356.921 140.537 356.49 141.445C355.022 144.506 354.138 147.733 353.851 151.042C353.829 151.393 353.509 151.661 353.133 151.661Z" fill="#D0F6FF"/>
<path d="M197.346 214.423C196.959 214.423 196.573 214.485 196.209 214.63C195.436 214.908 194.828 215.454 194.497 216.166C194.166 216.877 194.155 217.66 194.464 218.372C194.762 219.093 195.347 219.66 196.109 219.97C196.871 220.269 197.71 220.289 198.483 220.001C199.245 219.722 199.853 219.166 200.184 218.465C200.515 217.753 200.526 216.97 200.228 216.248C199.919 215.537 199.334 214.97 198.572 214.66C198.185 214.496 197.766 214.423 197.346 214.423ZM197.335 221.547C196.728 221.547 196.12 221.434 195.535 221.197C194.431 220.743 193.569 219.918 193.128 218.867C192.675 217.815 192.697 216.671 193.183 215.63C193.669 214.599 194.552 213.794 195.679 213.382C196.805 212.959 198.042 212.98 199.146 213.434C200.261 213.877 201.122 214.702 201.564 215.753C202.006 216.805 201.984 217.959 201.509 218.99C201.023 220.032 200.14 220.836 199.013 221.248C198.472 221.444 197.898 221.547 197.335 221.547Z" fill="black"/>
<path d="M558.943 261.722C558.723 261.722 558.502 261.629 558.369 261.444C558.137 261.145 558.204 260.722 558.524 260.506L560.39 259.258C560.721 259.042 561.163 259.104 561.395 259.413C561.627 259.712 561.561 260.124 561.229 260.341L559.374 261.598C559.242 261.681 559.098 261.722 558.943 261.722Z" fill="black"/>
<path d="M552.417 266.104C552.197 266.104 551.976 266.011 551.832 265.826C551.6 265.527 551.678 265.104 551.998 264.888L553.864 263.64C554.184 263.424 554.637 263.486 554.869 263.795C555.101 264.094 555.023 264.506 554.703 264.723L552.837 265.98C552.704 266.063 552.561 266.104 552.417 266.104Z" fill="black"/>
<path d="M554.934 261.114C554.713 261.114 554.492 261.011 554.36 260.836L553.013 259.094C552.781 258.795 552.847 258.372 553.178 258.155C553.499 257.939 553.951 258.011 554.183 258.31L555.519 260.052C555.751 260.351 555.674 260.774 555.354 260.99C555.232 261.073 555.089 261.114 554.934 261.114Z" fill="black"/>
<path d="M559.639 267.206C559.418 267.206 559.197 267.103 559.054 266.928L557.717 265.186C557.474 264.887 557.552 264.464 557.872 264.248C558.203 264.031 558.645 264.103 558.877 264.402L560.224 266.145C560.456 266.444 560.379 266.866 560.058 267.083C559.926 267.165 559.782 267.206 559.639 267.206Z" fill="black"/>
<path d="M446.796 62.7341C446.652 62.7341 446.497 62.6929 446.365 62.6001C446.177 62.4661 426.952 49.2188 391.263 47.3219C390.865 47.3012 390.567 46.9817 390.589 46.6105C390.611 46.2394 390.954 45.961 391.34 45.9817C427.504 47.8992 447.039 61.3939 447.237 61.5279C447.558 61.7547 447.613 62.1671 447.37 62.4661C447.237 62.6413 447.016 62.7341 446.796 62.7341Z" fill="black"/>
<path d="M459.638 60.2289C459.472 60.2289 459.295 60.1671 459.152 60.0537C459.086 59.9918 452.107 54.1156 438.204 48.6517C425.362 43.6105 403.807 37.8992 374.069 39.3322C373.661 39.3528 373.341 39.0745 373.319 38.7033C373.296 38.3322 373.606 38.0126 374.003 37.992C404.05 36.5487 425.837 42.3322 438.834 47.4455C452.946 53.0022 459.836 58.8166 460.124 59.064C460.422 59.3114 460.444 59.7341 460.168 60.0124C460.035 60.1568 459.836 60.2289 459.638 60.2289Z" fill="black"/>
<path d="M366.749 42.8474C366.583 42.8474 366.428 42.7856 366.285 42.6825L364.595 41.3423C364.297 41.1052 364.253 40.6825 364.518 40.4041C364.772 40.1155 365.225 40.0846 365.523 40.3217L367.223 41.6619C367.522 41.899 367.555 42.3217 367.301 42.6103C367.157 42.765 366.958 42.8474 366.749 42.8474Z" fill="black"/>
<path d="M360.841 38.157C360.675 38.157 360.51 38.1055 360.377 37.992L358.688 36.6622C358.378 36.4147 358.345 35.9921 358.599 35.7137C358.853 35.4251 359.317 35.3941 359.615 35.6312L361.305 36.9714C361.603 37.2085 361.647 37.6415 361.382 37.9199C361.249 38.0745 361.04 38.157 360.841 38.157Z" fill="black"/>
<path d="M364.75 37.8579C364.584 37.8579 364.419 37.8064 364.286 37.7033C363.977 37.4662 363.944 37.0435 364.198 36.7548L365.633 35.1878C365.898 34.8992 366.351 34.8682 366.649 35.1054C366.958 35.3425 366.992 35.7755 366.727 36.0538L365.291 37.6311C365.148 37.7858 364.949 37.8579 364.75 37.8579Z" fill="black"/>
<path d="M359.714 43.3731C359.548 43.3731 359.383 43.3216 359.25 43.2082C358.952 42.9711 358.908 42.5484 359.173 42.2701L360.608 40.6928C360.862 40.4144 361.315 40.3732 361.624 40.6103C361.922 40.8577 361.956 41.2804 361.702 41.5587L360.266 43.136C360.123 43.2907 359.924 43.3731 359.714 43.3731Z" fill="black"/>
<path d="M195.48 254.124C195.248 254.124 195.038 254.031 194.894 253.846C194.662 253.547 194.729 253.124 195.06 252.918L196.926 251.66C197.246 251.444 197.699 251.516 197.931 251.815C198.163 252.114 198.086 252.537 197.765 252.753L195.899 254C195.767 254.083 195.623 254.124 195.48 254.124Z" fill="black"/>
<path d="M188.943 258.516C188.722 258.516 188.501 258.413 188.357 258.238C188.125 257.929 188.203 257.516 188.523 257.3L190.389 256.042C190.709 255.826 191.162 255.898 191.394 256.197C191.626 256.496 191.549 256.918 191.228 257.135L189.362 258.382C189.241 258.475 189.086 258.516 188.943 258.516Z" fill="black"/>
<path d="M191.471 253.516C191.239 253.516 191.018 253.424 190.886 253.238L189.538 251.496C189.307 251.197 189.384 250.774 189.704 250.558C190.024 250.351 190.477 250.413 190.709 250.712L192.045 252.455C192.277 252.754 192.211 253.176 191.88 253.393C191.758 253.475 191.614 253.516 191.471 253.516Z" fill="black"/>
<path d="M196.165 259.609C195.944 259.609 195.723 259.516 195.58 259.331L194.232 257.589C194.001 257.29 194.078 256.877 194.398 256.661C194.718 256.444 195.171 256.506 195.403 256.805L196.75 258.547C196.982 258.846 196.905 259.269 196.584 259.485C196.452 259.568 196.308 259.609 196.165 259.609Z" fill="black"/>
<path d="M302.692 357.454C300.627 357.454 298.805 358.856 298.474 360.815C298.286 361.866 298.562 362.928 299.225 363.794C299.898 364.65 300.892 365.227 302.018 365.392C303.156 365.557 304.282 365.31 305.21 364.681C306.137 364.062 306.744 363.134 306.932 362.083C307.109 361.031 306.844 359.969 306.17 359.103C305.497 358.248 304.503 357.67 303.377 357.505C303.145 357.475 302.924 357.454 302.692 357.454ZM302.714 366.784C302.405 366.784 302.096 366.763 301.797 366.712C300.285 366.495 298.96 365.732 298.065 364.578C297.171 363.423 296.806 362.011 297.049 360.598C297.546 357.701 300.494 355.712 303.608 356.176C305.11 356.402 306.435 357.165 307.341 358.32C308.235 359.474 308.589 360.887 308.346 362.289C308.103 363.701 307.297 364.938 306.049 365.773C305.066 366.433 303.907 366.784 302.714 366.784Z" fill="black"/>
<path d="M47.6661 605.318L32.8984 616.925L21.888 603.713L37.0151 592.527L47.6661 605.318Z" fill="#1A7FC1"/>
<path d="M131.257 621.351L130.701 631.548H113.532L114.627 621.351H131.257Z" fill="#1A7FC1"/>
<path d="M130.033 631.175H114.089C112.962 631.175 111.933 631.856 111.508 632.91C110.087 636.347 107.212 644.388 107.604 652.007C107.702 654.098 109.433 655.736 111.524 655.736H158.31C160.467 655.736 162.1 653.758 161.675 651.65C161.153 649.121 159.372 645.798 154.243 642.815C145.944 637.984 135.489 633.153 132.205 631.646C131.519 631.338 130.784 631.175 130.033 631.175Z" fill="white"/>
<path d="M114.089 632.229C113.386 632.229 112.749 632.65 112.488 633.299C111.214 636.411 108.273 644.452 108.665 651.958C108.731 653.482 109.988 654.682 111.524 654.682H158.31C159.029 654.682 159.682 654.357 160.14 653.806C160.597 653.271 160.777 652.558 160.63 651.861C160.009 648.813 157.608 645.992 153.703 643.723C145.388 638.892 134.803 633.996 131.764 632.602C131.209 632.359 130.637 632.229 130.033 632.229H114.089ZM158.31 656.789H111.524C108.861 656.789 106.672 654.714 106.542 652.072C106.133 644.144 109.188 635.747 110.528 632.504C111.116 631.062 112.521 630.121 114.089 630.121H130.033C130.947 630.121 131.813 630.316 132.646 630.689C135.717 632.083 146.385 637.011 154.781 641.907C160.401 645.166 162.198 648.894 162.704 651.439C162.982 652.753 162.639 654.114 161.79 655.152C160.924 656.189 159.666 656.789 158.31 656.789Z" fill="black"/>
<path d="M133.708 646.058C133.496 646.058 133.3 645.993 133.12 645.879C132.63 645.555 132.499 644.907 132.81 644.42L139.181 634.872C139.508 634.385 140.161 634.256 140.651 634.564C141.141 634.888 141.272 635.553 140.961 636.039L134.59 645.588C134.394 645.896 134.051 646.058 133.708 646.058Z" fill="black"/>
<path d="M139.866 649.689C139.654 649.689 139.458 649.64 139.278 649.511C138.788 649.203 138.641 648.538 138.968 648.052L145.339 638.503C145.665 638.017 146.319 637.887 146.809 638.211C147.299 638.535 147.429 639.184 147.103 639.67L140.748 649.219C140.536 649.527 140.209 649.689 139.866 649.689Z" fill="black"/>
<path d="M32.6369 617.218L22.77 604.703C22.0676 603.811 20.9077 603.422 19.8132 603.73C16.2356 604.751 8.14937 607.475 2.39914 612.5C0.830898 613.878 0.61853 616.245 1.90907 617.882L30.8889 654.634C32.2285 656.336 34.7769 656.401 36.1654 654.747C37.8317 652.786 39.3346 649.333 38.5014 643.448C37.1456 633.932 34.4828 622.73 33.617 619.212C33.4373 618.499 33.1106 617.818 32.6369 617.218Z" fill="white"/>
<path d="M20.5815 604.686C20.4181 604.686 20.2711 604.702 20.1077 604.751C16.8732 605.675 8.7543 608.349 3.10208 613.294C1.95857 614.299 1.79521 616.034 2.74269 617.233L31.7225 653.985C32.18 654.552 32.8334 654.876 33.5522 654.892C34.2219 654.909 34.908 654.617 35.3491 654.082C37.3584 651.699 38.0772 648.067 37.4564 643.593C36.1006 634.061 33.3888 622.713 32.5884 619.47C32.4413 618.887 32.18 618.336 31.8042 617.866L21.921 605.35C21.5943 604.913 21.0879 604.686 20.5815 604.686ZM33.5848 657C33.5685 657 33.5358 657 33.5195 657C32.1473 656.984 30.8894 656.352 30.0563 655.298L1.07643 618.53C-0.573491 616.439 -0.295784 613.456 1.6972 611.705C7.67613 606.485 16.1545 603.681 19.5196 602.724C21.0226 602.286 22.6398 602.805 23.6036 604.037L33.4868 616.569C34.0423 617.282 34.4343 618.093 34.6467 618.968C35.4635 622.243 38.1916 633.672 39.5638 643.301C40.4622 649.721 38.6653 653.45 36.9827 655.427C36.1332 656.433 34.908 657 33.5848 657Z" fill="black"/>
<path d="M24.0777 629.716C23.5223 629.716 23.0485 629.295 23.0159 628.744C22.9669 628.176 23.4079 627.657 23.9797 627.609L35.4148 626.701C35.9866 626.652 36.5093 627.09 36.5583 627.657C36.6073 628.241 36.1663 628.76 35.5945 628.792L24.1594 629.716C24.1267 629.716 24.094 629.716 24.0777 629.716Z" fill="black"/>
<path d="M25.0257 636.801C24.4866 636.801 24.0129 636.396 23.9639 635.844C23.9149 635.261 24.3559 634.742 24.944 634.71L36.3791 633.786C36.9509 633.737 37.4736 634.175 37.5226 634.758C37.5717 635.342 37.1306 635.844 36.5425 635.893L25.1237 636.801C25.091 636.801 25.0584 636.801 25.0257 636.801Z" fill="black"/>
<path d="M93.3912 454.746C93.3912 454.746 87.9024 472.417 86.0891 498.241C84.2595 524.066 45.4617 553.247 32.0173 592.527L46.3112 609.679C46.3112 609.679 89.4379 576.64 97.7202 562.99C106.46 548.562 116.98 518.619 116.98 518.619L109.466 463.29L108.143 462.982C104.728 462.187 101.494 460.906 98.3573 459.399C96.2663 458.377 94.5347 456.756 93.3912 454.746Z" fill="#9FDCEA"/>
<path d="M97.6864 459.415C97.6864 459.415 93.8965 482.792 105.887 501.889C117.894 520.97 116.799 540.618 114.627 550.442C112.438 560.25 106.981 589.722 114.627 621.351C114.627 621.351 122.256 624.642 131.257 621.351C131.257 621.351 154.421 568.988 155.515 536.792C156.61 504.612 142.969 460.971 142.969 460.971C142.969 460.971 115.672 469.061 97.6864 459.415Z" fill="#C4F4FF"/>
<path d="M243.714 356.651C242.963 356.148 242.456 355.354 242.309 354.462C241.852 351.463 241.215 344.411 244.564 340.31C248.876 334.992 256.293 332.901 257.159 334.376C258.024 335.868 247.03 345.384 250.739 350.961C250.739 350.961 254.136 352.014 258.956 348.043C259.642 347.475 260.687 347.848 260.85 348.707C261.063 349.907 260.965 351.723 259.642 354.171C257.959 357.299 254.872 359.455 252.928 360.59C251.882 361.19 250.608 361.158 249.611 360.493L243.714 356.651Z" fill="white"/>
<path d="M255.835 334.944C253.989 334.944 248.778 336.808 245.38 340.975C242.293 344.768 242.946 351.561 243.371 354.3C243.453 354.9 243.796 355.435 244.302 355.759L250.183 359.618C250.853 360.055 251.702 360.072 252.388 359.683C254.055 358.71 257.093 356.651 258.694 353.668C259.919 351.415 259.968 349.826 259.805 348.902C259.805 348.886 259.788 348.853 259.739 348.837C259.674 348.805 259.658 348.837 259.641 348.853C254.43 353.149 250.575 352.015 250.412 351.95L250.052 351.836L249.84 351.528C246.965 347.216 251.326 341.347 254.202 337.473C254.839 336.597 255.623 335.576 255.966 334.944C255.933 334.944 255.884 334.944 255.835 334.944ZM251.343 362.082C250.526 362.082 249.726 361.839 249.023 361.385L243.126 357.526C242.129 356.862 241.443 355.808 241.264 354.625C240.692 350.88 240.234 343.941 243.73 339.645C247.536 334.96 253.515 332.658 256.227 332.869C257.338 332.95 257.861 333.452 258.089 333.842C258.727 334.944 257.779 336.208 255.917 338.721C253.483 341.996 249.856 346.892 251.408 350.004C252.323 350.102 254.855 350.053 258.286 347.232C258.89 346.713 259.707 346.584 260.475 346.843C261.226 347.119 261.749 347.751 261.896 348.529C262.222 350.361 261.781 352.42 260.573 354.673C258.825 357.916 255.737 360.185 253.466 361.498C252.797 361.887 252.062 362.082 251.343 362.082Z" fill="black"/>
<path d="M71.1909 440.318C71.1909 440.318 52.3719 438.6 47.6835 441.259C42.9788 443.933 43.4362 447.224 45.4782 448.635C47.0627 449.721 56.9623 449.024 61.3076 448.651C61.6507 448.635 61.7814 449.105 61.4547 449.235C58.9553 450.321 54.9203 452.38 55.3614 454.114C55.9821 456.627 71.8116 451.618 71.8116 451.618L71.1909 440.318Z" fill="white"/>
<path d="M56.4226 453.709C57.9909 454.179 64.7376 452.687 70.7165 450.856L70.1774 441.291C64.4435 440.821 51.6199 440.237 48.2057 442.182C46.2454 443.285 45.1345 444.582 45.0692 445.846C45.0365 446.592 45.4122 447.289 46.0983 447.759C46.6864 448.132 50.5417 448.505 61.209 447.613C61.8788 447.548 62.4996 447.97 62.6629 448.618C62.8263 449.267 62.4996 449.931 61.8788 450.207C57.7785 451.99 56.635 453.239 56.4226 453.709ZM57.3374 455.849C56.4226 455.849 55.6875 455.735 55.1974 455.476C54.6257 455.152 54.397 454.698 54.3153 454.373C53.9722 452.963 55.0504 451.52 57.5825 449.996C46.6538 450.726 45.3306 449.818 44.8732 449.494C43.599 448.618 42.8802 447.208 42.9455 445.749C42.9945 444.582 43.6153 442.345 47.1438 440.35C51.9956 437.595 69.328 439.086 71.2883 439.264L72.2031 439.345L72.9219 452.363L72.1377 452.623C69.426 453.466 61.5521 455.849 57.3374 455.849Z" fill="black"/>
<path d="M111.899 424.058C118.074 402.222 127.892 373.138 144.979 368.761L144.702 355.533C144.702 355.533 175.201 361.158 177.619 378.342C191.014 381.844 205.471 380.725 218.377 374.516C226.071 370.804 234.01 362.439 241.672 354.041L254.348 362.212C254.348 362.212 227.851 426.604 168.242 408.771C168.242 408.771 149.978 422.372 152.51 456.189C152.51 456.189 128.382 475.692 95.2693 457.973C95.2693 457.973 105.708 445.879 111.899 424.058Z" fill="#1A7FC1"/>
<path d="M68.2661 437.773L69.6383 454.422C69.6383 454.422 116.261 481.884 151.873 399.319L121.341 396.223C121.341 396.223 110.805 428.597 68.2661 437.773Z" fill="#1A7FC1"/>
<path d="M95.7597 460.08C95.2696 460.08 94.8286 459.756 94.7142 459.269C94.5835 458.702 94.9429 458.134 95.5147 457.989C122.338 451.682 132.908 437.497 141.386 426.101C141.745 425.631 142.415 425.533 142.889 425.874C143.346 426.23 143.46 426.895 143.101 427.349C134.41 439.021 123.58 453.547 96.0047 460.047C95.9231 460.064 95.8414 460.08 95.7597 460.08Z" fill="black"/>
<path d="M157.902 389.479C157.885 389.479 157.869 389.479 157.869 389.479C157.281 389.446 156.824 388.96 156.84 388.376C157.461 373.283 150.355 362.649 150.289 362.535C149.963 362.049 150.077 361.4 150.567 361.076C151.057 360.752 151.711 360.882 152.054 361.352C152.364 361.806 159.617 372.635 158.964 388.474C158.947 389.025 158.474 389.479 157.902 389.479Z" fill="black"/>
<path d="M169.14 408.738C168.862 408.738 168.568 408.625 168.356 408.382C167.963 407.96 167.996 407.279 168.437 406.906C176.017 400.179 175.805 392.884 175.805 392.819C175.788 392.235 176.246 391.749 176.818 391.716C177.373 391.7 177.912 392.138 177.928 392.721C177.945 393.062 178.222 401.038 169.858 408.463C169.646 408.657 169.401 408.738 169.14 408.738Z" fill="black"/>
<path d="M182.438 341.331C182.438 341.331 190.736 339.629 189.919 344.897C189.103 350.166 188.809 362.584 184.545 364.108C180.298 365.616 175.642 359.65 172.718 362.308C169.794 364.951 167.768 368.939 166.314 373.851C165.432 374.159 163.586 374.678 161.413 374.143C157.035 373.089 155.336 368.793 155.157 368.355C156.251 367.221 157.378 365.859 158.506 364.254C160.253 361.757 162.181 358.402 162.884 354.884L182.438 341.331Z" fill="white"/>
<path d="M156.415 368.566C157.003 369.766 158.587 372.376 161.658 373.122C163.145 373.479 164.484 373.3 165.465 373.025C167.049 367.837 169.189 364.076 171.999 361.531C174.041 359.666 176.573 360.866 178.795 361.92C180.641 362.795 182.552 363.703 184.186 363.103C186.963 362.114 187.861 353.717 188.384 348.691C188.547 347.216 188.694 345.822 188.858 344.736C189.037 343.666 188.694 343.196 188.433 342.952C187.24 341.834 184.12 342.093 182.862 342.32L163.847 355.516C163.178 358.451 161.675 361.596 159.371 364.854C158.391 366.248 157.395 367.48 156.415 368.566ZM163.325 375.424C162.655 375.424 161.92 375.359 161.168 375.181C156.268 373.997 154.373 369.247 154.16 368.712L153.932 368.096L154.389 367.626C155.467 366.508 156.545 365.162 157.623 363.654C159.175 361.466 161.152 358.126 161.838 354.689L161.92 354.268L181.997 340.342L182.225 340.294C182.764 340.18 187.616 339.272 189.903 341.429C190.54 342.028 191.259 343.163 190.965 345.06C190.802 346.097 190.655 347.459 190.508 348.902C189.805 355.484 188.939 363.654 184.921 365.097C182.438 365.973 180.02 364.838 177.88 363.833C175.74 362.811 174.368 362.228 173.437 363.071C170.823 365.438 168.83 369.069 167.343 374.143L167.18 374.662L166.673 374.84C165.84 375.148 164.681 375.424 163.325 375.424Z" fill="black"/>
<path d="M181.783 355.451C181.653 355.451 181.538 355.435 181.408 355.387C178.353 354.284 177.307 350.539 177.618 347.33C177.912 344.411 179.235 342.353 180.983 342.077C184.119 341.607 185.786 345.287 186.276 347.54C186.39 348.108 186.031 348.675 185.459 348.789C184.871 348.918 184.316 348.562 184.185 347.978C184.185 347.929 183.205 343.893 181.31 344.168C180.705 344.266 179.937 345.579 179.741 347.54C179.513 349.875 180.166 352.696 182.143 353.409C182.698 353.603 182.976 354.219 182.78 354.754C182.617 355.192 182.208 355.451 181.783 355.451Z" fill="black"/>
<path d="M184.415 345.497C184.415 345.497 192.942 347.054 192.664 338.689C192.387 330.323 186.408 322.12 170.415 325.395C170.415 325.395 166.788 314.388 157.51 317.581C148.247 320.759 151.237 335.219 160.515 336.484C160.515 336.484 152.756 350.62 162.623 355.792C165.106 357.089 168.014 357.316 170.758 356.732C173.666 356.1 177.439 354.657 178.959 351.398C178.959 351.398 177.635 344.671 180.216 343.309C182.814 341.947 184.415 345.497 184.415 345.497Z" fill="black"/>
<path d="M652.985 445.167C653.001 444.366 607.709 437.276 604.783 429.085C600.427 416.84 594.994 402.143 594.994 402.143L583.675 409.216L590.958 444.416L652.985 445.167Z" fill="white"/>
<path d="M591.85 443.349L642.962 443.966C624.63 440.046 605.86 435.375 603.758 429.453C600.176 419.426 595.836 407.598 594.424 403.778L584.904 409.734L591.85 443.349ZM652.986 446.252L590.942 445.501C590.438 445.501 589.983 445.134 589.883 444.634L582.6 409.433C582.516 408.983 582.718 408.533 583.088 408.299L594.407 401.226C594.693 401.042 595.029 401.009 595.349 401.109C595.651 401.209 595.904 401.459 596.021 401.76C596.072 401.91 601.504 416.624 605.81 428.718C607.811 434.324 635.78 440.229 646.326 442.465C654.096 444.1 654.096 444.1 654.079 445.184C654.079 445.468 653.961 445.751 653.759 445.952C653.558 446.152 653.272 446.252 652.986 446.252Z" fill="black"/>
<path d="M523.819 364.324C534.617 360.82 551.082 358.318 570.743 364.524C577.925 366.793 583.054 373.049 583.946 380.456L599.974 471.842C600.764 478.482 591.8 484.938 585.476 487.307C578.883 489.793 568.91 492.128 554.799 492.128C539.646 492.128 528.663 492.996 522.507 490.343C517.411 488.125 509.742 482.786 509.49 477.264L510.6 383.342C510.196 374.767 515.595 366.976 523.819 364.324Z" fill="#1A7FC1"/>
<path d="M599.486 403.577C599.486 403.577 586.687 368.494 572.358 365.108L579.64 414.838L599.486 403.577Z" fill="#1A7FC1"/>
<path d="M494 420.844C494 420.844 495.396 397.372 497.448 388.297C501.753 369.212 520.136 366.326 520.136 366.326L522.356 417.591L494 420.844Z" fill="#1A7FC1"/>
<path d="M538.114 371.947C529.47 371.947 522.658 370.746 522.17 370.663C521.582 370.563 521.178 369.995 521.279 369.412C521.397 368.811 521.968 368.427 522.557 368.527C522.776 368.561 543.681 372.214 558.818 366.659C559.39 366.459 560.012 366.742 560.231 367.31C560.432 367.86 560.147 368.494 559.575 368.694C552.696 371.213 544.842 371.947 538.114 371.947Z" fill="black"/>
<path d="M497.582 419.877C497.582 419.877 496.203 437.777 503.351 449.805C511.911 464.152 555.051 444.817 555.051 444.817L560.08 442.014C563.46 440.112 567.514 439.695 571.231 440.88L579.337 443.466C579.337 443.466 572.643 435.525 566.942 432.489C564.268 431.054 560.82 432.405 557.893 434.24C552.865 437.393 546.945 438.878 541.008 438.694L523.836 438.194C520.96 438.111 518.588 435.892 518.336 433.056L517.041 418.242L497.582 419.877Z" fill="white"/>
<path d="M498.624 420.877C498.456 424.647 498.305 439.194 504.309 449.254C506.394 452.774 510.868 454.075 516.317 454.075C531.202 454.092 553.402 444.366 554.563 443.849L559.541 441.063C563.174 439.011 567.563 438.577 571.549 439.845L575.788 441.196C573.349 438.677 569.683 435.174 566.42 433.439C564.099 432.205 560.819 433.689 558.481 435.157C553.352 438.377 547.331 439.979 540.956 439.778L523.802 439.278C520.371 439.178 517.545 436.542 517.242 433.155L516.048 419.409L498.624 420.877ZM516.435 456.161C510.195 456.161 504.965 454.626 502.408 450.355C495.16 438.177 496.421 420.543 496.488 419.793C496.522 419.259 496.942 418.842 497.48 418.792L516.94 417.157C517.545 417.107 518.066 417.557 518.134 418.141L519.429 432.955C519.631 435.257 521.548 437.042 523.869 437.109L541.024 437.61C546.91 437.793 552.544 436.308 557.304 433.322C561.425 430.736 564.839 430.136 567.462 431.521C573.265 434.64 579.891 442.448 580.16 442.781C580.48 443.148 580.514 443.682 580.228 444.082C579.959 444.483 579.454 444.65 578.983 444.516L570.893 441.914C567.479 440.829 563.729 441.196 560.617 442.948L555.589 445.767C555.572 445.784 555.538 445.801 555.505 445.817C554.209 446.385 532.16 456.161 516.435 456.161Z" fill="black"/>
<path d="M563.78 616.814L554.429 644.473C554.429 644.473 564.621 643.606 565.596 643.789C566.572 643.99 578.479 618.582 578.479 618.582L563.78 616.814Z" fill="white"/>
<path d="M564.537 617.998L556.01 643.256C559.02 643.006 563.443 642.672 565.176 642.689C566.588 640.737 572.004 629.776 576.865 619.483L564.537 617.998ZM554.445 645.558C554.092 645.558 553.789 645.391 553.571 645.141C553.352 644.857 553.285 644.474 553.403 644.123L562.754 616.48C562.905 615.98 563.41 615.68 563.914 615.746L578.614 617.498C578.967 617.548 579.27 617.748 579.438 618.048C579.606 618.349 579.623 618.716 579.488 619.033C579.455 619.099 576.461 625.472 573.4 631.728C566.824 645.141 566.42 645.057 565.394 644.857C564.722 644.774 559.34 645.141 554.529 645.541C554.496 645.558 554.462 645.558 554.445 645.558Z" fill="black"/>
<path d="M556.581 638.384C556.581 638.384 570.642 632.679 573.248 639.852C576.545 648.961 581.725 662.874 581.725 662.874C582.6 665.31 580.918 667.879 578.328 668.096C573.181 668.496 568.066 669.33 564.5 668.096C563 658 553 642.5 553 642.5L552.5 633C552.5 633 554.933 632.195 556.581 638.384Z" fill="#11BDEE"/>
<path d="M548.105 647.777C550.796 652.831 558.112 665.11 562.317 666.561C564.89 667.462 570.558 667.629 578.244 667.012C579.135 666.945 579.926 666.478 580.413 665.727C580.884 664.976 581.002 664.076 580.699 663.241C580.649 663.108 575.485 649.228 572.206 640.22C571.819 639.152 571.113 638.401 570.036 637.917C566.336 636.282 559.356 638.434 556.985 639.402C556.699 639.519 556.363 639.502 556.077 639.369C555.808 639.219 555.606 638.968 555.522 638.668C554.496 634.781 552.007 634.064 550.745 633.964L548.105 647.777ZM570.053 669.547C566.706 669.547 563.578 669.314 561.577 668.613C555.707 666.578 546.961 650.296 545.986 648.461C545.868 648.227 545.834 647.994 545.885 647.743L548.761 632.696C548.845 632.245 549.215 631.895 549.686 631.828C551.62 631.561 555.539 632.345 557.271 636.966C559.912 636.049 566.639 634.047 570.928 635.932C572.559 636.649 573.686 637.851 574.275 639.485C577.537 648.494 582.701 662.374 582.751 662.507C583.289 663.992 583.104 665.594 582.247 666.895C581.389 668.213 579.993 669.047 578.412 669.164C575.839 669.381 572.862 669.547 570.053 669.547Z" fill="black"/>
<path d="M578.125 663.157H563.678C563.073 663.157 562.585 662.673 562.585 662.073C562.585 661.472 563.073 660.989 563.678 660.989H578.125C578.731 660.989 579.219 661.472 579.219 662.073C579.219 662.673 578.731 663.157 578.125 663.157Z" fill="black"/>
<path d="M537.256 623.62L540.435 651.43L553.234 647.943L552.242 622.886L537.256 623.62Z" fill="white"/>
<path d="M538.484 624.637L541.394 650.045L552.107 647.125L551.182 624.02L538.484 624.637ZM540.435 652.514C540.217 652.514 540.015 652.447 539.83 652.33C539.561 652.147 539.393 651.863 539.359 651.546L536.18 623.737C536.147 623.436 536.231 623.136 536.433 622.902C536.618 622.686 536.903 622.535 537.206 622.535L552.192 621.801C552.477 621.801 552.763 621.901 552.982 622.085C553.201 622.285 553.318 622.552 553.335 622.852L554.311 647.91C554.344 648.41 554.008 648.86 553.52 648.994L540.738 652.464C540.637 652.497 540.536 652.514 540.435 652.514Z" fill="black"/>
<path d="M539.241 671.916H559.473C562.198 671.916 564.3 669.514 563.897 666.828C563.224 662.307 561.021 654.8 554.428 644.473C553.721 643.339 552.46 642.655 551.115 642.655H544.959C543.899 642.655 543.008 643.439 542.89 644.49L542.436 648.894L539.762 645.391C539.762 645.391 534.969 655.367 534.75 667.395C534.7 669.864 536.735 671.916 539.241 671.916Z" fill="#11BDEE"/>
<path d="M540.015 647.543C538.704 650.846 536.013 658.603 535.844 667.411C535.828 668.312 536.164 669.163 536.82 669.814C537.459 670.464 538.317 670.831 539.242 670.831H559.474C560.45 670.831 561.392 670.398 562.031 669.664C562.687 668.93 562.956 667.945 562.821 666.978C562.165 662.607 560.029 655.25 553.504 645.04C552.999 644.239 552.074 643.739 551.116 643.739H544.96C544.455 643.739 544.035 644.106 543.985 644.606L543.514 649.011C543.48 649.444 543.16 649.811 542.723 649.928C542.286 650.045 541.832 649.895 541.563 649.544L540.015 647.543ZM559.474 673H539.242C537.728 673 536.315 672.416 535.256 671.332C534.196 670.281 533.624 668.863 533.658 667.361C533.877 655.25 538.569 645.34 538.754 644.923C538.922 644.573 539.259 644.339 539.645 644.306C540.015 644.273 540.402 644.423 540.621 644.723L541.63 646.041L541.815 644.373C541.983 642.771 543.329 641.57 544.96 641.57H551.116C552.848 641.57 554.429 642.438 555.354 643.889C562.081 654.399 564.301 662.073 564.991 666.661C565.226 668.262 564.755 669.864 563.696 671.082C562.636 672.299 561.089 673 559.474 673Z" fill="black"/>
<path d="M561.947 668.212H537.728C537.123 668.212 536.635 667.728 536.635 667.128C536.635 666.527 537.123 666.043 537.728 666.043H561.947C562.552 666.043 563.04 666.527 563.04 667.128C563.04 667.728 562.552 668.212 561.947 668.212Z" fill="black"/>
<path d="M585.274 456.595C584.752 455.31 583.676 454.326 582.347 453.909C574.947 451.607 549.148 445.551 522.608 462.434C521.347 463.218 520.556 464.552 520.455 466.02C519.497 479.383 515.914 549.266 538.216 631.978L553.251 630.91L556.312 489.476C556.312 489.476 578.58 541.325 560.466 623.854L576.108 626.706C576.108 626.706 598.981 596.911 603.068 551.385C606.701 511.097 589.327 466.387 585.274 456.595Z" fill="#C4F4FF"/>
<path d="M542.051 566.732C542.034 566.732 542.017 566.732 542 566.732C527.671 566.132 526.056 546.93 526.04 546.73C526.006 546.146 526.443 545.612 527.049 545.579C527.654 545.529 528.176 545.979 528.226 546.58C528.243 546.747 529.706 564.046 542.101 564.58C542.707 564.597 543.178 565.097 543.144 565.698C543.11 566.282 542.623 566.732 542.051 566.732Z" fill="white"/>
<path d="M557.624 503.523C557.035 503.523 556.548 503.072 556.531 502.472L555.993 484.788C555.993 484.421 556.161 484.071 556.464 483.871L565.832 477.331C566.319 476.998 567.009 477.114 567.362 477.598C567.698 478.099 567.581 478.766 567.093 479.116L558.213 485.305L558.717 502.405C558.734 503.006 558.263 503.506 557.658 503.523C557.641 503.523 557.641 503.523 557.624 503.523Z" fill="white"/>
<path d="M537.357 330.759C531.656 325.887 530.344 325.237 528.679 322.434C527.317 320.165 524.289 315.077 526.341 309.705C528.124 305.068 533.018 302.265 537.509 302.015C541.545 301.815 544.505 303.7 546.069 304.701C546.759 305.134 552.763 309.122 553.957 315.611C554.277 317.363 554.025 318.18 554.849 319.281C556.665 321.767 559.978 320.499 562.266 322.568C565.142 325.153 563.813 330.675 563.695 331.109C562.198 336.998 555.774 340.902 550.543 340.351C547.516 340.051 547.852 339.684 537.357 330.759Z" fill="black"/>
<path d="M553.117 359.886C550.342 358.068 548.744 354.981 548.812 351.695L549.131 338.082C549.232 337.999 549.316 337.898 549.4 337.815C549.4 337.815 554.917 338.182 555.724 335.413C556.515 332.627 552.629 332.093 552.629 332.093C552.629 332.093 556.296 324.436 546.793 324.519C544.237 324.552 543.329 320.348 539.124 319.414C539.124 319.414 537.056 319.231 534.953 324.619L530.362 331.359L532.649 332.61C532.094 335.179 531.842 338.015 532.195 341.001C532.296 341.869 532.901 342.603 533.725 342.87C534.415 343.087 535.357 343.32 536.45 343.454L535.71 352.562C535.39 356.549 533.271 360.186 529.975 362.488C526.779 364.707 523.819 366.275 523.819 366.275C523.819 366.275 540.789 368.578 560.282 364.157C560.282 364.157 556.515 362.121 553.117 359.886Z" fill="white"/>
<path d="M527.317 365.508C532.783 365.892 544.303 366.225 557.237 363.69C555.875 362.906 554.142 361.871 552.511 360.787C549.433 358.768 547.633 355.348 547.718 351.662L548.037 338.049C548.037 337.765 548.172 337.481 548.39 337.281L548.659 337.031C548.878 336.831 549.164 336.714 549.483 336.747C550.997 336.831 554.243 336.564 554.664 335.113C554.798 334.612 554.697 334.362 554.596 334.212C554.159 333.544 552.881 333.227 552.477 333.177C552.124 333.127 551.821 332.91 551.67 332.61C551.502 332.31 551.485 331.943 551.636 331.626C551.653 331.609 552.881 328.957 551.771 327.272C550.863 325.87 548.575 325.587 546.809 325.604C546.793 325.604 546.776 325.604 546.776 325.604C545.094 325.604 544.017 324.419 542.975 323.285C541.932 322.15 540.856 320.966 539.073 320.515C538.753 320.615 537.441 321.266 535.978 325.02C535.945 325.086 535.911 325.153 535.86 325.22L531.942 330.992L533.186 331.659C533.607 331.893 533.825 332.377 533.725 332.844C533.119 335.563 532.984 338.266 533.287 340.885C533.338 341.318 533.64 341.702 534.061 341.836C534.868 342.086 535.709 342.269 536.584 342.369C537.155 342.436 537.593 342.953 537.542 343.537L536.802 352.646C536.449 356.967 534.195 360.87 530.596 363.373C529.419 364.19 528.292 364.908 527.317 365.508ZM535.137 367.944C528.225 367.944 523.768 367.36 523.667 367.343C523.213 367.276 522.826 366.926 522.742 366.459C522.658 366.009 522.893 365.541 523.297 365.308C523.331 365.291 526.24 363.756 529.335 361.588C532.396 359.469 534.313 356.149 534.616 352.479L535.272 344.371C534.633 344.255 534.01 344.088 533.388 343.904C532.16 343.504 531.252 342.42 531.101 341.135C530.798 338.532 530.916 335.863 531.42 333.177L529.839 332.31C529.554 332.176 529.369 331.926 529.284 331.626C529.217 331.326 529.284 331.009 529.453 330.758L533.977 324.119C536.247 318.38 538.753 318.297 539.224 318.33C539.275 318.33 539.325 318.347 539.376 318.347C541.949 318.931 543.412 320.532 544.589 321.817C545.497 322.818 546.103 323.435 546.776 323.435C546.809 323.435 546.893 323.435 546.961 323.435C550.24 323.435 552.477 324.336 553.621 326.104C554.765 327.872 554.445 330.024 554.058 331.342C554.865 331.626 555.841 332.126 556.43 333.011C556.934 333.795 557.052 334.729 556.766 335.713C555.942 338.549 552.023 338.916 550.207 338.916L549.921 351.712C549.837 354.664 551.266 357.367 553.722 358.985C557.035 361.171 560.769 363.189 560.802 363.206C561.206 363.423 561.425 363.857 561.357 364.307C561.307 364.757 560.971 365.108 560.516 365.224C550.93 367.393 541.865 367.944 535.137 367.944Z" fill="black"/>
<path d="M536.449 343.454C536.449 343.454 542.487 343.654 544.875 340.401L536.449 343.454Z" fill="white"/>
<path d="M536.685 344.539C536.534 344.539 536.433 344.539 536.416 344.539C535.811 344.505 535.34 344.005 535.357 343.404C535.374 342.804 535.895 342.337 536.484 342.37C536.551 342.37 541.983 342.503 544.001 339.767C544.355 339.284 545.044 339.167 545.532 339.534C546.02 339.884 546.121 340.568 545.767 341.052C543.346 344.322 537.997 344.539 536.685 344.539Z" fill="black"/>
<path d="M660.117 441.631H602.379L645.182 376.419C646.527 374.384 648.848 373.132 651.354 373.132H698.211C701.188 373.132 703.004 376.302 701.406 378.721L660.117 441.631Z" fill="black"/>
<path d="M672.444 396.004C670.56 398.873 666.541 401.175 663.429 401.175C660.335 401.175 659.325 398.873 661.209 396.004C663.093 393.151 667.129 390.832 670.224 390.832C673.319 390.832 674.328 393.151 672.444 396.004Z" fill="#1A7FC1"/>
<path d="M654.365 447.069H558.247C554.95 447.069 552.276 444.417 552.276 441.163H660.335C660.335 444.417 657.661 447.069 654.365 447.069Z" fill="black"/>
<path d="M657.122 442.765H607.541C606.935 442.765 606.431 442.281 606.431 441.681C606.431 441.08 606.935 440.596 607.541 440.596H657.122C657.727 440.596 658.215 441.08 658.215 441.681C658.215 442.281 657.727 442.765 657.122 442.765Z" fill="white"/>
</svg>
